<?xml version="1.0" encoding="UTF-8"?>
<svg width="1400" height="900" viewBox="0 0 1400 900" xmlns="http://www.w3.org/2000/svg" font-family="Arial, sans-serif" font-size="13">
  <style>
    .lbl  { font-size: 13px; fill: #111; }
    .val  { font-size: 11px; fill: #444; }
    .pin  { font-size: 12px; fill: #111; font-weight: bold; }
    .head { font-size: 15px; font-weight: bold; fill: #111; }
    .note { font-size: 12px; fill: #333; font-style: italic; }
    .iso  { font-size: 12px; fill: #c00; font-weight: bold; }
    .sect { font-size: 13px; fill: #666; font-weight: bold; }
    line  { stroke-linecap: round; stroke-linejoin: round; }
  </style>
<rect width="1400" height="900" fill="white"/>
<rect x="8" y="8" width="1384" height="884" fill="none" stroke="#bbb" stroke-width="1"/>
<text x="700.0" y="36" class="head" text-anchor="middle">CV Tap Tempo Mod v3 — schemat ideowy (jeden pedał)</text>
<line x1="1000" y1="56" x2="1000" y2="800" stroke="#c00" stroke-width="1.5" stroke-dasharray="8,5"/>
<text x="990" y="70" class="iso" text-anchor="end">GND_mod (modular)</text>
<text x="1010" y="70" class="iso" text-anchor="start">GND_ped (pedał)</text>
<text x="30" y="92" class="sect" text-anchor="start">Tor A/B (SELECT + GATE/TRIG)</text>
<line x1="320" y1="130" x2="320" y2="390" stroke="#111" stroke-width="2" />
<circle cx="320" cy="225" r="4" fill="#111"/>
<text x="312" y="217" class="val" text-anchor="end">in_AB</text>
<line x1="320" y1="130" x2="410.0" y2="130" stroke="#111" stroke-width="2" />
<rect x="410.0" y="120" width="60" height="20" fill="white" stroke="#111" stroke-width="2"/>
<line x1="470.0" y1="130" x2="560" y2="130" stroke="#111" stroke-width="2" />
<text x="440.0" y="114" class="lbl" text-anchor="middle">R2</text>
<text x="440.0" y="158" class="val" text-anchor="middle">470Ω 0,6 W</text>
<line x1="560" y1="130" x2="880" y2="130" stroke="#111" stroke-width="2" />
<circle cx="840" cy="130" r="4" fill="#111"/>
<text x="834" y="120" class="val" text-anchor="end">LED+</text>
<rect x="880" y="100" width="240" height="120" rx="8" fill="#eef4fb" stroke="#111" stroke-width="2"/>
<text x="880" y="90" class="head" text-anchor="start">OC1 PC817</text>
<line x1="880" y1="130" x2="935" y2="130" stroke="#111" stroke-width="2" />
<line x1="935" y1="130" x2="935" y2="150" stroke="#111" stroke-width="2" />
<polygon points="924,150 946,150 935,170" fill="#111" stroke="#111" stroke-width="1.5"/>
<line x1="924" y1="170" x2="946" y2="170" stroke="#111" stroke-width="3" />
<line x1="935" y1="170" x2="935" y2="190" stroke="#111" stroke-width="2" />
<line x1="935" y1="190" x2="880" y2="190" stroke="#111" stroke-width="2" />
<line x1="955" y1="152" x2="985" y2="152" stroke="#111" stroke-width="1.5" />
<polygon points="985,152 977,148 977,156" fill="#111" stroke="#111" stroke-width="1.5"/>
<line x1="955" y1="164" x2="985" y2="164" stroke="#111" stroke-width="1.5" />
<polygon points="985,164 977,160 977,168" fill="#111" stroke="#111" stroke-width="1.5"/>
<line x1="1045" y1="140" x2="1045" y2="180" stroke="#111" stroke-width="3" />
<line x1="1045" y1="150" x2="1080" y2="130" stroke="#111" stroke-width="2" />
<line x1="1080" y1="130" x2="1120" y2="130" stroke="#111" stroke-width="2" />
<line x1="1045" y1="170" x2="1080" y2="190" stroke="#111" stroke-width="2" />
<line x1="1080" y1="190" x2="1120" y2="190" stroke="#111" stroke-width="2" />
<polygon points="1080,190 1069,188 1074,180" fill="#111" stroke="#111" stroke-width="1.5"/>
<text x="874" y="124" class="pin" text-anchor="end">1+</text>
<text x="874" y="184" class="pin" text-anchor="end">2−</text>
<text x="1126" y="124" class="pin" text-anchor="start">4 C</text>
<text x="1126" y="184" class="pin" text-anchor="start">3 E</text>
<line x1="840" y1="190" x2="840" y2="171.0" stroke="#111" stroke-width="2" />
<polygon points="829,171.0 851,171.0 840,151.0" fill="#111" stroke="#111" stroke-width="1.5"/>
<line x1="829" y1="151.0" x2="851" y2="151.0" stroke="#111" stroke-width="3" />
<line x1="840" y1="151.0" x2="840" y2="130" stroke="#111" stroke-width="2" />
<text x="824" y="158.0" class="lbl" text-anchor="end">D1</text>
<text x="824" y="174.0" class="val" text-anchor="end">1N4148</text>
<line x1="840" y1="190" x2="880" y2="190" stroke="#111" stroke-width="2" />
<circle cx="840" cy="190" r="4" fill="#111"/>
<text x="846" y="206" class="val" text-anchor="start">LED−</text>
<circle cx="836" cy="300" r="24" fill="none" stroke="#111" stroke-width="1.5"/>
<line x1="818" y1="286" x2="818" y2="314" stroke="#111" stroke-width="3" />
<line x1="818" y1="294" x2="840" y2="278" stroke="#111" stroke-width="2" />
<line x1="840" y1="278" x2="840" y2="274" stroke="#111" stroke-width="2" />
<line x1="818" y1="306" x2="840" y2="322" stroke="#111" stroke-width="2" />
<line x1="840" y1="322" x2="840" y2="326" stroke="#111" stroke-width="2" />
<polygon points="840,322 829,319 835,312" fill="#111" stroke="#111" stroke-width="1.5"/>
<text x="870" y="296" class="lbl" text-anchor="start">Q1</text>
<text x="870" y="312" class="val" text-anchor="start">BC547B</text>
<line x1="840" y1="190" x2="840" y2="274" stroke="#111" stroke-width="2" />
<line x1="840" y1="326" x2="840" y2="350" stroke="#111" stroke-width="2" />
<line x1="840" y1="350" x2="840" y2="360" stroke="#111" stroke-width="2" />
<line x1="826" y1="360" x2="854" y2="360" stroke="#111" stroke-width="2" />
<line x1="831" y1="365" x2="849" y2="365" stroke="#111" stroke-width="2" />
<line x1="836" y1="370" x2="844" y2="370" stroke="#111" stroke-width="2" />
<line x1="320" y1="300" x2="414.0" y2="300" stroke="#111" stroke-width="2" />
<line x1="414.0" y1="284" x2="414.0" y2="316" stroke="#111" stroke-width="3" />
<line x1="426.0" y1="284" x2="426.0" y2="316" stroke="#111" stroke-width="3" />
<line x1="426.0" y1="300" x2="520" y2="300" stroke="#111" stroke-width="2" />
<text x="420.0" y="334" class="val" text-anchor="middle">C1 0.22µF</text>
<circle cx="320" cy="300" r="4" fill="#111"/>
<circle cx="520" cy="300" r="4" fill="#111"/>
<text x="526" y="292" class="val" text-anchor="start">node_h</text>
<line x1="520" y1="300" x2="610.0" y2="300" stroke="#111" stroke-width="2" />
<rect x="610.0" y="290" width="60" height="20" fill="white" stroke="#111" stroke-width="2"/>
<line x1="670.0" y1="300" x2="760" y2="300" stroke="#111" stroke-width="2" />
<text x="640.0" y="284" class="lbl" text-anchor="middle">R5</text>
<text x="640.0" y="328" class="val" text-anchor="middle">47kΩ</text>
<line x1="760" y1="300" x2="818" y2="300" stroke="#111" stroke-width="2" />
<circle cx="760" cy="300" r="4" fill="#111"/>
<line x1="760" y1="390" x2="760" y2="356.0" stroke="#111" stroke-width="2" />
<polygon points="749,356.0 771,356.0 760,336.0" fill="#111" stroke="#111" stroke-width="1.5"/>
<line x1="749" y1="336.0" x2="771" y2="336.0" stroke="#111" stroke-width="3" />
<line x1="760" y1="336.0" x2="760" y2="300" stroke="#111" stroke-width="2" />
<text x="744" y="343.0" class="lbl" text-anchor="end">D3</text>
<text x="744" y="359.0" class="val" text-anchor="end">1N4148</text>
<line x1="760" y1="390" x2="760" y2="400" stroke="#111" stroke-width="2" />
<line x1="746" y1="400" x2="774" y2="400" stroke="#111" stroke-width="2" />
<line x1="751" y1="405" x2="769" y2="405" stroke="#111" stroke-width="2" />
<line x1="756" y1="410" x2="764" y2="410" stroke="#111" stroke-width="2" />
<line x1="520" y1="300" x2="520" y2="320.0" stroke="#111" stroke-width="2" />
<rect x="510" y="320.0" width="20" height="50" fill="white" stroke="#111" stroke-width="2"/>
<line x1="520" y1="370.0" x2="520" y2="390" stroke="#111" stroke-width="2" />
<text x="536" y="341.0" class="lbl" text-anchor="start">R1</text>
<text x="536" y="357.0" class="val" text-anchor="start">100kΩ</text>
<line x1="520" y1="390" x2="520" y2="400" stroke="#111" stroke-width="2" />
<line x1="506" y1="400" x2="534" y2="400" stroke="#111" stroke-width="2" />
<line x1="511" y1="405" x2="529" y2="405" stroke="#111" stroke-width="2" />
<line x1="516" y1="410" x2="524" y2="410" stroke="#111" stroke-width="2" />
<line x1="320" y1="300" x2="320" y2="320" stroke="#111" stroke-width="2" />
<line x1="320" y1="320" x2="320" y2="330.0" stroke="#111" stroke-width="2" />
<rect x="310" y="330.0" width="20" height="50" fill="white" stroke="#111" stroke-width="2"/>
<line x1="320" y1="380.0" x2="320" y2="390" stroke="#111" stroke-width="2" />
<text x="336" y="351.0" class="lbl" text-anchor="start">R7</text>
<text x="336" y="367.0" class="val" text-anchor="start">47kΩ</text>
<line x1="320" y1="390" x2="320" y2="400" stroke="#111" stroke-width="2" />
<line x1="306" y1="400" x2="334" y2="400" stroke="#111" stroke-width="2" />
<line x1="311" y1="405" x2="329" y2="405" stroke="#111" stroke-width="2" />
<line x1="316" y1="410" x2="324" y2="410" stroke="#111" stroke-width="2" />
<circle cx="320" cy="240" r="4" fill="#111"/>
<line x1="320" y1="240" x2="400.0" y2="240" stroke="#111" stroke-width="2" />
<circle cx="400.0" cy="240" r="4" fill="white" stroke="#111" stroke-width="2"/>
<circle cx="440.0" cy="240" r="4" fill="white" stroke="#111" stroke-width="2"/>
<line x1="403.0" y1="238" x2="438.0" y2="224" stroke="#111" stroke-width="2" />
<line x1="444.0" y1="240" x2="520" y2="240" stroke="#111" stroke-width="2" />
<text x="420.0" y="216" class="lbl" text-anchor="middle">SW_HP — GATE/TRIG</text>
<text x="420.0" y="258" class="val" text-anchor="middle">ON = GATE (zwarty), OFF = TRIG</text>
<line x1="520" y1="240" x2="520" y2="300" stroke="#111" stroke-width="2" />
<circle cx="60" cy="130" r="14" fill="white" stroke="#111" stroke-width="2"/>
<circle cx="60" cy="130" r="4" fill="#111"/>
<text x="60" y="108" class="lbl" text-anchor="middle">CV A</text>
<line x1="60" y1="144" x2="60" y2="164" stroke="#111" stroke-width="2" />
<line x1="60" y1="164" x2="60" y2="174" stroke="#111" stroke-width="2" />
<line x1="46" y1="174" x2="74" y2="174" stroke="#111" stroke-width="2" />
<line x1="51" y1="179" x2="69" y2="179" stroke="#111" stroke-width="2" />
<line x1="56" y1="184" x2="64" y2="184" stroke="#111" stroke-width="2" />
<text x="60" y="200" class="val" text-anchor="middle">GND_mod</text>
<circle cx="60" cy="330" r="14" fill="white" stroke="#111" stroke-width="2"/>
<circle cx="60" cy="330" r="4" fill="#111"/>
<text x="60" y="308" class="lbl" text-anchor="middle">CV B</text>
<line x1="60" y1="344" x2="60" y2="364" stroke="#111" stroke-width="2" />
<line x1="60" y1="364" x2="60" y2="374" stroke="#111" stroke-width="2" />
<line x1="46" y1="374" x2="74" y2="374" stroke="#111" stroke-width="2" />
<line x1="51" y1="379" x2="69" y2="379" stroke="#111" stroke-width="2" />
<line x1="56" y1="384" x2="64" y2="384" stroke="#111" stroke-width="2" />
<text x="60" y="400" class="val" text-anchor="middle">GND_mod</text>
<line x1="74" y1="130" x2="196" y2="130" stroke="#111" stroke-width="2" />
<line x1="74" y1="330" x2="196" y2="330" stroke="#111" stroke-width="2" />
<circle cx="200" cy="130" r="4" fill="white" stroke="#111" stroke-width="2"/>
<circle cx="200" cy="330" r="4" fill="white" stroke="#111" stroke-width="2"/>
<circle cx="260" cy="225" r="4" fill="white" stroke="#111" stroke-width="2"/>
<line x1="257" y1="222" x2="203" y2="133" stroke="#111" stroke-width="2" />
<line x1="257" y1="228" x2="203" y2="327" stroke="#111" stroke-width="2" stroke-dasharray="5,4"/>
<line x1="264" y1="225" x2="320" y2="225" stroke="#111" stroke-width="2" />
<text x="215" y="209" class="lbl" text-anchor="end">SELECT</text>
<text x="215" y="227" class="val" text-anchor="end">A / OFF / B</text>
<text x="30" y="452" class="sect" text-anchor="start">Tor C (zawsze TRIG)</text>
<line x1="320" y1="500" x2="320" y2="760" stroke="#111" stroke-width="2" />
<circle cx="320" cy="595" r="4" fill="#111"/>
<text x="312" y="587" class="val" text-anchor="end">in_C</text>
<line x1="320" y1="500" x2="410.0" y2="500" stroke="#111" stroke-width="2" />
<rect x="410.0" y="490" width="60" height="20" fill="white" stroke="#111" stroke-width="2"/>
<line x1="470.0" y1="500" x2="560" y2="500" stroke="#111" stroke-width="2" />
<text x="440.0" y="484" class="lbl" text-anchor="middle">R4</text>
<text x="440.0" y="528" class="val" text-anchor="middle">470Ω 0,6 W</text>
<line x1="560" y1="500" x2="880" y2="500" stroke="#111" stroke-width="2" />
<circle cx="840" cy="500" r="4" fill="#111"/>
<text x="834" y="490" class="val" text-anchor="end">LED+</text>
<rect x="880" y="470" width="240" height="120" rx="8" fill="#eef4fb" stroke="#111" stroke-width="2"/>
<text x="880" y="460" class="head" text-anchor="start">OC2 PC817</text>
<line x1="880" y1="500" x2="935" y2="500" stroke="#111" stroke-width="2" />
<line x1="935" y1="500" x2="935" y2="520" stroke="#111" stroke-width="2" />
<polygon points="924,520 946,520 935,540" fill="#111" stroke="#111" stroke-width="1.5"/>
<line x1="924" y1="540" x2="946" y2="540" stroke="#111" stroke-width="3" />
<line x1="935" y1="540" x2="935" y2="560" stroke="#111" stroke-width="2" />
<line x1="935" y1="560" x2="880" y2="560" stroke="#111" stroke-width="2" />
<line x1="955" y1="522" x2="985" y2="522" stroke="#111" stroke-width="1.5" />
<polygon points="985,522 977,518 977,526" fill="#111" stroke="#111" stroke-width="1.5"/>
<line x1="955" y1="534" x2="985" y2="534" stroke="#111" stroke-width="1.5" />
<polygon points="985,534 977,530 977,538" fill="#111" stroke="#111" stroke-width="1.5"/>
<line x1="1045" y1="510" x2="1045" y2="550" stroke="#111" stroke-width="3" />
<line x1="1045" y1="520" x2="1080" y2="500" stroke="#111" stroke-width="2" />
<line x1="1080" y1="500" x2="1120" y2="500" stroke="#111" stroke-width="2" />
<line x1="1045" y1="540" x2="1080" y2="560" stroke="#111" stroke-width="2" />
<line x1="1080" y1="560" x2="1120" y2="560" stroke="#111" stroke-width="2" />
<polygon points="1080,560 1069,558 1074,550" fill="#111" stroke="#111" stroke-width="1.5"/>
<text x="874" y="494" class="pin" text-anchor="end">1+</text>
<text x="874" y="554" class="pin" text-anchor="end">2−</text>
<text x="1126" y="494" class="pin" text-anchor="start">4 C</text>
<text x="1126" y="554" class="pin" text-anchor="start">3 E</text>
<line x1="840" y1="560" x2="840" y2="541.0" stroke="#111" stroke-width="2" />
<polygon points="829,541.0 851,541.0 840,521.0" fill="#111" stroke="#111" stroke-width="1.5"/>
<line x1="829" y1="521.0" x2="851" y2="521.0" stroke="#111" stroke-width="3" />
<line x1="840" y1="521.0" x2="840" y2="500" stroke="#111" stroke-width="2" />
<text x="824" y="528.0" class="lbl" text-anchor="end">D2</text>
<text x="824" y="544.0" class="val" text-anchor="end">1N4148</text>
<line x1="840" y1="560" x2="880" y2="560" stroke="#111" stroke-width="2" />
<circle cx="840" cy="560" r="4" fill="#111"/>
<text x="846" y="576" class="val" text-anchor="start">LED−</text>
<circle cx="836" cy="670" r="24" fill="none" stroke="#111" stroke-width="1.5"/>
<line x1="818" y1="656" x2="818" y2="684" stroke="#111" stroke-width="3" />
<line x1="818" y1="664" x2="840" y2="648" stroke="#111" stroke-width="2" />
<line x1="840" y1="648" x2="840" y2="644" stroke="#111" stroke-width="2" />
<line x1="818" y1="676" x2="840" y2="692" stroke="#111" stroke-width="2" />
<line x1="840" y1="692" x2="840" y2="696" stroke="#111" stroke-width="2" />
<polygon points="840,692 829,689 835,682" fill="#111" stroke="#111" stroke-width="1.5"/>
<text x="870" y="666" class="lbl" text-anchor="start">Q2</text>
<text x="870" y="682" class="val" text-anchor="start">BC547B</text>
<line x1="840" y1="560" x2="840" y2="644" stroke="#111" stroke-width="2" />
<line x1="840" y1="696" x2="840" y2="720" stroke="#111" stroke-width="2" />
<line x1="840" y1="720" x2="840" y2="730" stroke="#111" stroke-width="2" />
<line x1="826" y1="730" x2="854" y2="730" stroke="#111" stroke-width="2" />
<line x1="831" y1="735" x2="849" y2="735" stroke="#111" stroke-width="2" />
<line x1="836" y1="740" x2="844" y2="740" stroke="#111" stroke-width="2" />
<line x1="320" y1="670" x2="414.0" y2="670" stroke="#111" stroke-width="2" />
<line x1="414.0" y1="654" x2="414.0" y2="686" stroke="#111" stroke-width="3" />
<line x1="426.0" y1="654" x2="426.0" y2="686" stroke="#111" stroke-width="3" />
<line x1="426.0" y1="670" x2="520" y2="670" stroke="#111" stroke-width="2" />
<text x="420.0" y="704" class="val" text-anchor="middle">C2 0.22µF</text>
<circle cx="320" cy="670" r="4" fill="#111"/>
<circle cx="520" cy="670" r="4" fill="#111"/>
<text x="526" y="662" class="val" text-anchor="start">node_h</text>
<line x1="520" y1="670" x2="610.0" y2="670" stroke="#111" stroke-width="2" />
<rect x="610.0" y="660" width="60" height="20" fill="white" stroke="#111" stroke-width="2"/>
<line x1="670.0" y1="670" x2="760" y2="670" stroke="#111" stroke-width="2" />
<text x="640.0" y="654" class="lbl" text-anchor="middle">R6</text>
<text x="640.0" y="698" class="val" text-anchor="middle">47kΩ</text>
<line x1="760" y1="670" x2="818" y2="670" stroke="#111" stroke-width="2" />
<circle cx="760" cy="670" r="4" fill="#111"/>
<line x1="760" y1="760" x2="760" y2="726.0" stroke="#111" stroke-width="2" />
<polygon points="749,726.0 771,726.0 760,706.0" fill="#111" stroke="#111" stroke-width="1.5"/>
<line x1="749" y1="706.0" x2="771" y2="706.0" stroke="#111" stroke-width="3" />
<line x1="760" y1="706.0" x2="760" y2="670" stroke="#111" stroke-width="2" />
<text x="744" y="713.0" class="lbl" text-anchor="end">D4</text>
<text x="744" y="729.0" class="val" text-anchor="end">1N4148</text>
<line x1="760" y1="760" x2="760" y2="770" stroke="#111" stroke-width="2" />
<line x1="746" y1="770" x2="774" y2="770" stroke="#111" stroke-width="2" />
<line x1="751" y1="775" x2="769" y2="775" stroke="#111" stroke-width="2" />
<line x1="756" y1="780" x2="764" y2="780" stroke="#111" stroke-width="2" />
<line x1="520" y1="670" x2="520" y2="690.0" stroke="#111" stroke-width="2" />
<rect x="510" y="690.0" width="20" height="50" fill="white" stroke="#111" stroke-width="2"/>
<line x1="520" y1="740.0" x2="520" y2="760" stroke="#111" stroke-width="2" />
<text x="536" y="711.0" class="lbl" text-anchor="start">R3</text>
<text x="536" y="727.0" class="val" text-anchor="start">100kΩ</text>
<line x1="520" y1="760" x2="520" y2="770" stroke="#111" stroke-width="2" />
<line x1="506" y1="770" x2="534" y2="770" stroke="#111" stroke-width="2" />
<line x1="511" y1="775" x2="529" y2="775" stroke="#111" stroke-width="2" />
<line x1="516" y1="780" x2="524" y2="780" stroke="#111" stroke-width="2" />
<line x1="320" y1="670" x2="320" y2="690" stroke="#111" stroke-width="2" />
<line x1="320" y1="690" x2="320" y2="700.0" stroke="#111" stroke-width="2" />
<rect x="310" y="700.0" width="20" height="50" fill="white" stroke="#111" stroke-width="2"/>
<line x1="320" y1="750.0" x2="320" y2="760" stroke="#111" stroke-width="2" />
<text x="336" y="721.0" class="lbl" text-anchor="start">R8</text>
<text x="336" y="737.0" class="val" text-anchor="start">47kΩ</text>
<line x1="320" y1="760" x2="320" y2="770" stroke="#111" stroke-width="2" />
<line x1="306" y1="770" x2="334" y2="770" stroke="#111" stroke-width="2" />
<line x1="311" y1="775" x2="329" y2="775" stroke="#111" stroke-width="2" />
<line x1="316" y1="780" x2="324" y2="780" stroke="#111" stroke-width="2" />
<circle cx="60" cy="595" r="14" fill="white" stroke="#111" stroke-width="2"/>
<circle cx="60" cy="595" r="4" fill="#111"/>
<text x="60" y="573" class="lbl" text-anchor="middle">CV C</text>
<line x1="60" y1="609" x2="60" y2="629" stroke="#111" stroke-width="2" />
<line x1="60" y1="629" x2="60" y2="639" stroke="#111" stroke-width="2" />
<line x1="46" y1="639" x2="74" y2="639" stroke="#111" stroke-width="2" />
<line x1="51" y1="644" x2="69" y2="644" stroke="#111" stroke-width="2" />
<line x1="56" y1="649" x2="64" y2="649" stroke="#111" stroke-width="2" />
<text x="60" y="665" class="val" text-anchor="middle">GND_mod</text>
<line x1="74" y1="595" x2="320" y2="595" stroke="#111" stroke-width="2" />
<line x1="1120" y1="130" x2="1240" y2="130" stroke="#111" stroke-width="2" />
<line x1="1120" y1="500" x2="1161" y2="500" stroke="#111" stroke-width="2" />
<path d="M 1161 500 A 9 9 0 0 1 1179 500" fill="none" stroke="#111" stroke-width="2"/>
<line x1="1179" y1="500" x2="1240" y2="500" stroke="#111" stroke-width="2" />
<line x1="1240" y1="130" x2="1240" y2="740" stroke="#111" stroke-width="2" />
<circle cx="1240" cy="500" r="4" fill="#111"/>
<line x1="1120" y1="190" x2="1170" y2="190" stroke="#111" stroke-width="2" />
<line x1="1120" y1="560" x2="1170" y2="560" stroke="#111" stroke-width="2" />
<line x1="1170" y1="190" x2="1170" y2="740" stroke="#111" stroke-width="2" />
<circle cx="1170" cy="560" r="4" fill="#111"/>
<text x="1248" y="122" class="lbl" text-anchor="start">tap_pin</text>
<text x="1248" y="138" class="val" text-anchor="start">→ PCB pedału (~3.3V)</text>
<text x="1178" y="208" class="lbl" text-anchor="start">GND_ped</text>
<circle cx="1240" cy="740" r="4" fill="#111"/>
<circle cx="1170" cy="740" r="4" fill="#111"/>
<circle cx="1192" cy="770" r="4" fill="white" stroke="#111" stroke-width="2"/>
<circle cx="1218" cy="770" r="4" fill="white" stroke="#111" stroke-width="2"/>
<line x1="1170" y1="740" x2="1170" y2="770" stroke="#111" stroke-width="2" />
<line x1="1170" y1="770" x2="1188" y2="770" stroke="#111" stroke-width="2" />
<line x1="1240" y1="740" x2="1240" y2="770" stroke="#111" stroke-width="2" />
<line x1="1240" y1="770" x2="1222" y2="770" stroke="#111" stroke-width="2" />
<line x1="1195" y1="768" x2="1215" y2="754" stroke="#111" stroke-width="2" />
<text x="1205.0" y="792" class="lbl" text-anchor="middle">REC (ON/OFF)</text>
<text x="30" y="822" class="note" text-anchor="start">D1/D2: antyparalel do LED — katoda (pasek) → pin 1 PC817, anoda → pin 2</text>
<text x="30" y="837" class="note" text-anchor="start">D3/D4: klamp bazy — anoda → GND_mod, katoda (pasek) → baza Q</text>
<text x="30" y="852" class="note" text-anchor="start">R7/R8: pull-down wejścia (in → GND_mod) — kolejne gate'y działają też przy źródle, które nie ściąga do 0V</text>
<text x="30" y="867" class="note" text-anchor="start">TRIG: impuls 15–133 ms · GATE: tap tak długi jak gate · odporne na ±12V (20 Vpp i 24 Vpp)</text>
<text x="30" y="882" class="note" text-anchor="start">Przecięcie z łukiem = brak połączenia. Kropka = połączenie. Wartości i połączenia: spec.md (v3)</text>
</svg>
